<svg version="1.1" id="Layer_1" xmlns="http://www.w3.org/2000/svg" xmlns:xlink="http://www.w3.org/1999/xlink" x="0px" y="0px"
	 width="100%" viewBox="0 0 500 500" enable-background="new 0 0 500 500" xml:space="preserve">
<path fill="#000000" opacity="1.000000" stroke="none" 
	d="
M288.000000,501.000000 
	C192.000015,501.000000 96.500046,501.000000 1.000051,501.000000 
	C1.000034,334.333405 1.000034,167.666794 1.000017,1.000141 
	C167.666565,1.000094 334.333130,1.000094 500.999756,1.000047 
	C500.999847,167.666519 500.999847,334.333038 500.999939,500.999786 
	C430.166656,501.000000 359.333344,501.000000 288.000000,501.000000 
M224.000000,367.500000 
	C224.000000,353.170288 224.000885,338.840607 223.999710,324.510895 
	C223.998795,313.256226 215.376297,306.939850 204.950333,311.102570 
	C192.502243,316.072601 189.770248,318.035889 189.904816,332.380615 
	C190.208038,364.706970 190.000000,397.038147 190.000000,429.367340 
	C190.000015,446.698456 190.008896,464.029572 189.996597,481.360687 
	C189.989487,491.364105 200.207672,500.142700 210.670074,494.126465 
	C217.305496,490.310913 224.466080,487.419556 231.310562,483.954559 
	C253.855118,472.541565 276.321838,460.973999 298.909332,449.647034 
	C305.930145,446.126312 309.147339,440.990631 309.087982,433.010681 
	C308.867340,403.349426 309.069885,373.685272 308.947113,344.022888 
	C308.919128,337.258881 311.945038,332.863342 318.005341,330.509033 
	C333.231293,324.593933 348.516388,318.831146 363.768768,312.983826 
	C372.888214,309.487671 382.006042,305.986206 391.095154,302.412231 
	C396.649384,300.228210 400.968597,296.844208 400.978577,290.226654 
	C401.026062,258.730743 401.006317,227.234726 400.995239,195.738754 
	C400.992493,187.937805 392.018036,181.038177 383.976746,184.031738 
	C360.567749,192.746262 337.202698,201.583618 313.908447,210.600296 
	C288.966583,220.254730 264.152191,230.237915 239.232422,239.949966 
	C211.187378,250.880020 183.102859,261.709564 154.987457,272.457092 
	C151.916855,273.630859 148.394714,274.935608 145.316574,274.504547 
	C138.887344,273.604187 135.007599,268.010681 135.001343,261.296204 
	C134.995148,254.630386 134.998688,247.964569 135.000351,241.298752 
	C135.002274,233.564392 137.769073,229.693497 144.985474,227.008286 
	C155.939621,222.932281 166.900558,218.870056 177.792404,214.631851 
	C212.418411,201.158203 246.967514,187.485825 281.633667,174.116730 
	C318.533722,159.886108 355.535492,145.919434 392.487030,131.822235 
	C397.531403,129.897766 400.998322,124.736893 400.998749,119.289734 
	C401.001251,85.960663 401.000824,52.631588 400.999542,19.302513 
	C400.999146,9.232800 393.189178,3.617055 383.432068,6.999701 
	C373.448761,10.460774 363.579742,14.256785 353.697479,18.003139 
	C334.233246,25.381985 314.793243,32.824768 295.345459,40.246952 
	C275.448395,47.840611 255.540863,55.407089 235.663467,63.051907 
	C224.005722,67.535461 212.373810,72.088509 200.776901,76.726891 
	C194.223343,79.348099 190.853500,84.103180 190.950653,91.420181 
	C191.125412,104.582848 191.077911,117.750168 190.962875,130.914154 
	C190.914719,136.426346 193.368210,140.199158 198.115143,142.630463 
	C204.992996,146.153183 210.902924,142.535385 216.980118,140.017853 
	C222.689987,137.652512 224.856140,133.095139 224.978134,127.306343 
	C225.083450,122.309196 224.987152,117.308044 225.003418,112.308731 
	C225.022232,106.529900 227.941177,102.147400 232.971222,100.132767 
	C250.356766,93.169479 267.933563,86.684082 285.431396,80.000603 
	C306.375977,72.000618 327.359741,64.100197 348.233307,55.918835 
	C356.861420,52.537052 364.688019,55.917042 365.821198,65.098862 
	C366.968506,74.395226 367.100952,83.882156 366.857483,93.264336 
	C366.660156,100.868660 362.467590,105.418419 354.808594,108.221687 
	C329.395905,117.522919 304.262726,127.590523 279.053864,137.444855 
	C253.998047,147.239365 229.020538,157.234970 203.935883,166.954468 
	C172.432175,179.161179 140.817429,191.081818 109.338455,203.351318 
	C102.674904,205.948563 100.855705,208.751328 100.905540,215.956116 
	C101.124527,247.617233 100.999939,279.280701 101.000046,310.943329 
	C101.000076,320.043671 108.861336,325.817627 117.527664,322.972168 
	C121.787384,321.573547 125.982635,319.969666 130.171890,318.366791 
	C153.350113,309.498474 176.537476,300.653412 199.682159,291.698212 
	C217.307922,284.878418 234.861237,277.871643 252.471405,271.011200 
	C273.958313,262.640503 295.470001,254.333435 316.972870,246.003677 
	C327.570831,241.898254 338.110474,237.631271 348.793091,233.759094 
	C357.266968,230.687546 366.267548,235.026215 365.147461,245.094849 
	C364.378357,252.008408 364.765472,259.086700 365.064697,266.072998 
	C365.376282,273.348358 363.696411,275.440704 356.029388,278.453827 
	C332.033783,287.884033 307.967468,297.134399 283.970306,306.560791 
	C275.972443,309.702484 274.000244,312.923492 274.000153,321.623596 
	C273.999786,352.286346 273.982086,382.949127 274.016785,413.611816 
	C274.022888,419.026581 272.177887,423.494446 267.331299,426.085693 
	C259.004028,430.537903 250.610245,434.892700 242.040283,438.845947 
	C239.747116,439.903748 236.515915,440.082672 234.058945,439.410034 
	C227.227295,437.539703 224.141754,433.565216 224.057419,424.992188 
	C223.872208,406.163086 224.000000,387.330933 224.000000,367.500000 
z"/>
<path fill="#FFFFFF" opacity="1.000000" stroke="none" 
	d="
M224.000000,368.000000 
	C224.000000,387.330933 223.872208,406.163086 224.057419,424.992188 
	C224.141754,433.565216 227.227295,437.539703 234.058945,439.410034 
	C236.515915,440.082672 239.747116,439.903748 242.040283,438.845947 
	C250.610245,434.892700 259.004028,430.537903 267.331299,426.085693 
	C272.177887,423.494446 274.022888,419.026581 274.016785,413.611816 
	C273.982086,382.949127 273.999786,352.286346 274.000153,321.623596 
	C274.000244,312.923492 275.972443,309.702484 283.970306,306.560791 
	C307.967468,297.134399 332.033783,287.884033 356.029388,278.453827 
	C363.696411,275.440704 365.376282,273.348358 365.064697,266.072998 
	C364.765472,259.086700 364.378357,252.008408 365.147461,245.094849 
	C366.267548,235.026215 357.266968,230.687546 348.793091,233.759094 
	C338.110474,237.631271 327.570831,241.898254 316.972870,246.003677 
	C295.470001,254.333435 273.958313,262.640503 252.471405,271.011200 
	C234.861237,277.871643 217.307922,284.878418 199.682159,291.698212 
	C176.537476,300.653412 153.350113,309.498474 130.171890,318.366791 
	C125.982635,319.969666 121.787384,321.573547 117.527664,322.972168 
	C108.861336,325.817627 101.000076,320.043671 101.000046,310.943329 
	C100.999939,279.280701 101.124527,247.617233 100.905540,215.956116 
	C100.855705,208.751328 102.674904,205.948563 109.338455,203.351318 
	C140.817429,191.081818 172.432175,179.161179 203.935883,166.954468 
	C229.020538,157.234970 253.998047,147.239365 279.053864,137.444855 
	C304.262726,127.590523 329.395905,117.522919 354.808594,108.221687 
	C362.467590,105.418419 366.660156,100.868660 366.857483,93.264336 
	C367.100952,83.882156 366.968506,74.395226 365.821198,65.098862 
	C364.688019,55.917042 356.861420,52.537052 348.233307,55.918835 
	C327.359741,64.100197 306.375977,72.000618 285.431396,80.000603 
	C267.933563,86.684082 250.356766,93.169479 232.971222,100.132767 
	C227.941177,102.147400 225.022232,106.529900 225.003418,112.308731 
	C224.987152,117.308044 225.083450,122.309196 224.978134,127.306343 
	C224.856140,133.095139 222.689987,137.652512 216.980118,140.017853 
	C210.902924,142.535385 204.992996,146.153183 198.115143,142.630463 
	C193.368210,140.199158 190.914719,136.426346 190.962875,130.914154 
	C191.077911,117.750168 191.125412,104.582848 190.950653,91.420181 
	C190.853500,84.103180 194.223343,79.348099 200.776901,76.726891 
	C212.373810,72.088509 224.005722,67.535461 235.663467,63.051907 
	C255.540863,55.407089 275.448395,47.840611 295.345459,40.246952 
	C314.793243,32.824768 334.233246,25.381985 353.697479,18.003139 
	C363.579742,14.256785 373.448761,10.460774 383.432068,6.999701 
	C393.189178,3.617055 400.999146,9.232800 400.999542,19.302513 
	C401.000824,52.631588 401.001251,85.960663 400.998749,119.289734 
	C400.998322,124.736893 397.531403,129.897766 392.487030,131.822235 
	C355.535492,145.919434 318.533722,159.886108 281.633667,174.116730 
	C246.967514,187.485825 212.418411,201.158203 177.792404,214.631851 
	C166.900558,218.870056 155.939621,222.932281 144.985474,227.008286 
	C137.769073,229.693497 135.002274,233.564392 135.000351,241.298752 
	C134.998688,247.964569 134.995148,254.630386 135.001343,261.296204 
	C135.007599,268.010681 138.887344,273.604187 145.316574,274.504547 
	C148.394714,274.935608 151.916855,273.630859 154.987457,272.457092 
	C183.102859,261.709564 211.187378,250.880020 239.232422,239.949966 
	C264.152191,230.237915 288.966583,220.254730 313.908447,210.600296 
	C337.202698,201.583618 360.567749,192.746262 383.976746,184.031738 
	C392.018036,181.038177 400.992493,187.937805 400.995239,195.738754 
	C401.006317,227.234726 401.026062,258.730743 400.978577,290.226654 
	C400.968597,296.844208 396.649384,300.228210 391.095154,302.412231 
	C382.006042,305.986206 372.888214,309.487671 363.768768,312.983826 
	C348.516388,318.831146 333.231293,324.593933 318.005341,330.509033 
	C311.945038,332.863342 308.919128,337.258881 308.947113,344.022888 
	C309.069885,373.685272 308.867340,403.349426 309.087982,433.010681 
	C309.147339,440.990631 305.930145,446.126312 298.909332,449.647034 
	C276.321838,460.973999 253.855118,472.541565 231.310562,483.954559 
	C224.466080,487.419556 217.305496,490.310913 210.670074,494.126465 
	C200.207672,500.142700 189.989487,491.364105 189.996597,481.360687 
	C190.008896,464.029572 190.000015,446.698456 190.000000,429.367340 
	C190.000000,397.038147 190.208038,364.706970 189.904816,332.380615 
	C189.770248,318.035889 192.502243,316.072601 204.950333,311.102570 
	C215.376297,306.939850 223.998795,313.256226 223.999710,324.510895 
	C224.000885,338.840607 224.000000,353.170288 224.000000,368.000000 
z"/>
</svg>