<svg width="306" height="306" viewBox="0 0 306 306" fill="none" xmlns="http://www.w3.org/2000/svg">
<rect width="306" height="306" rx="153" fill="white"/>
<g clip-path="url(#clip0_220_8)">
<path d="M150.412 199.878C158.569 199.878 166.514 198.86 174.248 196.825C181.981 194.79 189.311 191.814 196.237 187.897C197.506 187.244 198.488 187.072 199.18 187.379C199.873 187.686 200.431 188.166 200.854 188.819L203.913 193.83C199.488 196.71 195.082 199.168 190.696 201.203C186.348 203.2 181.981 204.832 177.595 206.099C173.17 207.328 168.707 208.23 164.205 208.806C159.704 209.382 155.106 209.67 150.412 209.67C145.679 209.67 141.062 209.382 136.56 208.806C132.058 208.23 127.614 207.328 123.228 206.099C118.804 204.832 114.417 203.2 110.069 201.203C105.683 199.168 101.277 196.71 96.8528 193.83L99.9116 188.819C100.335 188.166 100.893 187.686 101.585 187.379C102.278 187.072 103.259 187.244 104.529 187.897C111.454 191.814 118.804 194.79 126.576 196.825C134.309 198.86 142.255 199.878 150.412 199.878Z" fill="#003F91"/>
<path d="M197.139 134.459C196.735 134.92 196.36 135.237 196.014 135.41C195.668 135.582 195.235 135.669 194.715 135.669C194.311 135.669 193.907 135.554 193.503 135.323C193.099 135.035 192.724 134.718 192.378 134.373C191.743 133.797 190.906 133.077 189.867 132.213C188.829 131.291 187.588 130.37 186.145 129.448C184.76 128.526 183.201 127.691 181.47 126.942C179.796 126.136 178.007 125.56 176.103 125.214C176.16 125.387 176.189 125.589 176.189 125.819C176.189 125.992 176.189 126.165 176.189 126.338C176.189 129.333 175.208 131.781 173.246 133.682C171.226 135.525 168.657 136.446 165.541 136.446C162.828 136.446 160.52 135.525 158.615 133.682C156.711 131.781 155.758 129.275 155.758 126.165C155.758 124.437 156.076 122.91 156.711 121.586C157.345 120.261 158.24 119.166 159.394 118.302C160.491 117.381 161.789 116.69 163.29 116.229C164.733 115.768 166.32 115.538 168.051 115.538C170.649 115.538 173.361 115.912 176.189 116.661C178.959 117.352 181.701 118.418 184.413 119.858C187.184 121.24 189.867 122.939 192.465 124.955C195.062 126.971 197.457 129.275 199.65 131.867L197.139 134.459Z" fill="#003F91"/>
<path d="M120.016 138.554C118.515 138.554 117.101 138.296 115.774 137.778C114.446 137.202 113.292 136.453 112.311 135.532C111.33 134.553 110.551 133.401 109.973 132.077C109.396 130.752 109.108 129.341 109.108 127.843C109.108 126.346 109.396 124.934 109.973 123.609C110.551 122.284 111.33 121.132 112.311 120.153C113.292 119.173 114.446 118.396 115.774 117.819C117.101 117.243 118.515 116.954 120.016 116.954C121.574 116.954 123.017 117.241 124.344 117.817C125.614 118.393 126.739 119.17 127.721 120.149C128.702 121.128 129.452 122.28 129.971 123.605C130.549 124.929 130.837 126.34 130.837 127.838C130.837 129.335 130.549 130.747 129.971 132.072C129.452 133.397 128.702 134.549 127.721 135.528C126.739 136.45 125.614 137.199 124.344 137.775C123.017 138.294 121.574 138.554 120.016 138.554Z" fill="#003F91"/>
<path d="M81.7806 166.889V196.092C81.7806 203.81 79.2989 209.743 74.3354 213.89C69.372 218.153 61.9269 220.284 52 220.284V209.916C63.7737 209.916 69.6606 205.308 69.6606 196.092V166.889C69.6606 159.977 73.7006 155.599 81.7806 153.756V152.374C73.7006 150.53 69.6606 146.038 69.6606 138.895V109.692C69.6606 100.476 63.7737 95.868 52 95.868V85.5C61.9269 85.5 69.372 87.6312 74.3354 91.8936C79.2989 96.0408 81.7806 101.974 81.7806 109.692V138.895C81.7806 141.43 82.6463 143.676 84.3777 145.634C86.2246 147.593 88.764 148.572 91.996 148.572V157.212C88.764 157.212 86.2246 158.191 84.3777 160.15C82.6463 162.108 81.7806 164.354 81.7806 166.889Z" fill="#FF6700"/>
<path d="M222.806 196.092V166.889C222.806 164.354 221.882 162.108 220.035 160.15C218.304 158.191 215.822 157.212 212.59 157.212V148.572C215.822 148.572 218.304 147.593 220.035 145.634C221.882 143.676 222.806 141.43 222.806 138.895V109.692C222.806 101.974 225.287 96.0408 230.251 91.8936C235.214 87.6312 242.659 85.5 252.586 85.5V95.868C240.812 95.868 234.925 100.476 234.925 109.692V138.895C234.925 146.038 230.886 150.53 222.806 152.374V153.756C230.886 155.599 234.925 159.977 234.925 166.889V196.092C234.925 205.308 240.812 209.916 252.586 209.916V220.284C242.659 220.284 235.214 218.153 230.251 213.89C225.287 209.743 222.806 203.81 222.806 196.092Z" fill="#FF6700"/>
</g>
<defs>
<clipPath id="clip0_220_8">
<rect width="202" height="135" fill="white" transform="translate(52 85.5)"/>
</clipPath>
</defs>
</svg>

